.
..............................Site Info...........................

 -   http://www.scenetime.com  *_*   

SceneTime is going to Close sign up on march/1, hurry up! get in before the doors are closed.

     We care to share . Join us on  http://www.scenetime.com 

    Be the first to get new release at  http://www.scenetime.com

        Seed back for speed


...................................NFO:.................................................








































          
          
              
              
                    
                    
                    
                    
DeadHeads.2011.DVDRiP.AC3-5.1.XviD-SiC

Poster:
[img]http://img39.imageshack.us/img39/6273/deadheadsdvd.png[/img]

IMDB Link: 
http://www.imdb.com/title/tt1273207

Description:
Two inexplicably coherent zombies awake amidst a zombie attack and decide to take a road trip to find the one's lost love, unaware they are being chased by the agents of a ruthless company with it's own agenda.

General:
Complete name                            : DeadHeads.2011.DVDRiP.AC3-5.1.XviD-SiC.avi
Format                                   : AVI
Format/Info                              : Audio Video Interleave
File size                                : 1.50 GiB
Duration                                 : 1h 30mn
Overall bit rate                         : 2 360 Kbps

Video
ID                                       : 0
Format                                   : MPEG-4 Visual
Format profile                           : Advanced Simple@L5
Format settings, BVOP                    : 3
Format settings, QPel                    : No
Format settings, GMC                     : No warppoints
Format settings, Matrix                  : Default (H.263)
Codec ID                                 : XVID
Codec ID/Hint                            : XviD
Duration                                 : 1h 30mn
Bit rate                                 : 1 904 Kbps
Width                                    : 720 pixels
Height                                   : 400 pixels
Display aspect ratio                     : 16:9
Frame rate                               : 25.000 fps
Color space                              : YUV
Chroma subsampling                       : 4:2:0
Bit depth                                : 8 bits
Scan type                                : Progressive
Compression mode                         : Lossy
Bits/(Pixel*Frame)                       : 0.264
Stream size                              : 1.21 GiB (81%)
Writing library                          : XviD 1.2.1 (UTC 2008-12-04)

Audio
ID                                       : 1
Format                                   : AC-3
Format/Info                              : Audio Coding 3
Mode extension                           : CM (complete main)
Codec ID                                 : 2000
Duration                                 : 1h 30mn
Bit rate mode                            : Constant
Bit rate                                 : 448 Kbps
Channel(s)                               : 6 channels
Channel positions                        : Front: L C R, Side: L R, LFE
Sampling rate                            : 48.0 KHz
Bit depth                                : 16 bits
Compression mode                         : Lossy
Stream size                              : 292 MiB (19%)
Alignment                                : Aligned on interleaves
Interleave, duration                     : 64 ms (1.60 video frames)
Interleave, preload duration             : 192 ms
Title                                    : VTS_01_1 T80 3_2ch 448Kbps DELAY 0ms

Screenshots:
[IMG]http://img684.imageshack.us/img684/6427/deadheads2011dvdripac35.jpg[/IMG]
[IMG]http://img69.imageshack.us/img69/6427/deadheads2011dvdripac35.jpg[/IMG]
[IMG]http://img24.imageshack.us/img24/6427/deadheads2011dvdripac35.jpg[/IMG]
[IMG]http://img190.imageshack.us/img190/6427/deadheads2011dvdripac35.jpg[/IMG]
[IMG]http://img859.imageshack.us/img859/6427/deadheads2011dvdripac35.jpg[/IMG]
[IMG]http://img38.imageshack.us/img38/6427/deadheads2011dvdripac35.jpg[/IMG]
[IMG]http://img859.imageshack.us/img859/1575/deadheads2011dvdripac35t.jpg[/IMG]
[IMG]http://img715.imageshack.us/img715/6427/deadheads2011dvdripac35.jpg[/IMG]
[IMG]http://img194.imageshack.us/img194/6427/deadheads2011dvdripac35.jpg[/IMG]
[IMG]http://img24.imageshack.us/img24/9326/deadheads2011dvdripac35v.jpg[/IMG]


Note:  Audio left untouched just muxed to our encode :)  Video gave it a nice touch, turned out great :D :yes:

Source:  DeadHeads.2011.COMPLETE.PAL.DVDR-KiK  -  MANY THANKS :)

Enjoy!

Respects to T00NG0D, ELEKTRI4KA, PA, YeFsTe, MrRep and everyone in the struggle...